<?xml version="1.0" standalone="no"?>
<!DOCTYPE svg PUBLIC "-//W3C//DTD SVG 20010904//EN"
 "http://www.w3.org/TR/2001/REC-SVG-20010904/DTD/svg10.dtd">
<svg version="1.0" xmlns="http://www.w3.org/2000/svg"
 width="300.000000pt" height="300.000000pt" viewBox="0 0 300.000000 300.000000"
 preserveAspectRatio="xMidYMid meet">
<metadata>
Created by potrace 1.10, written by Peter Selinger 2001-2011
</metadata>
<g transform="translate(0.000000,300.000000) scale(0.100000,-0.100000)"
fill="#4a044e" stroke="none">
<path d="M1245 2984 c-485 -88 -885 -433 -1040 -899 -90 -269 -92 -579 -5
-849 22 -68 26 -92 17 -97 -80 -46 -147 -125 -167 -199 -28 -100 0 -232 64
-306 l33 -39 -33 -39 c-54 -63 -77 -136 -72 -231 3 -65 10 -91 33 -134 93
-171 325 -223 477 -108 52 40 105 116 121 174 l11 43 818 0 c648 0 818 -3 818
-12 0 -30 54 -126 93 -166 69 -72 127 -96 227 -96 102 -1 154 19 229 89 69 65
96 129 95 230 -1 88 -18 139 -72 210 l-30 39 28 36 c61 77 75 118 75 215 0 75
-4 98 -25 140 -27 56 -94 126 -138 144 l-29 12 28 88 c46 145 63 259 63 431 0
174 -16 274 -66 423 -66 200 -174 374 -323 522 -202 202 -450 332 -724 379
-119 20 -393 20 -506 0z m503 -79 c305 -58 586 -227 766 -460 80 -103 117
-163 160 -255 133 -291 152 -626 52 -944 -19 -63 -25 -71 -49 -74 -15 -2 -27
-2 -27 0 0 2 9 31 21 63 63 179 85 426 55 610 -43 257 -159 485 -343 670 -417
419 -1094 480 -1596 143 -80 -53 -261 -235 -316 -317 -58 -85 -135 -249 -161
-341 -29 -105 -50 -250 -50 -350 0 -130 39 -338 81 -437 l18 -43 -29 0 c-28 0
-30 4 -54 78 -62 198 -80 392 -52 581 63 424 314 774 691 964 128 64 315 117
465 131 81 7 283 -3 368 -19z m-108 -135 c0 -28 -2 -30 -40 -30 -38 0 -40 2
-40 30 0 28 2 30 40 30 38 0 40 -2 40 -30z m-132 -88 c3 -26 0 -32 -15 -32
-33 0 -43 -21 -43 -92 l0 -68 -40 0 c-39 0 -40 1 -40 33 0 19 -3 68 -6 110
l-7 77 42 0 c22 0 41 -5 41 -11 0 -6 7 -3 16 6 25 25 49 15 52 -23z m128 -14
c-3 -24 -8 -73 -11 -110 l-7 -68 -39 0 -39 0 6 78 c10 143 9 142 55 142 l40 0
-5 -42z m142 17 c12 -4 20 -10 17 -14 -2 -5 14 -6 38 -4 55 6 87 -21 87 -74 0
-52 -38 -173 -53 -168 -7 2 -24 9 -39 14 l-27 10 19 57 c24 68 25 100 5 108
-29 11 -45 -7 -65 -75 -21 -69 -26 -74 -67 -63 -29 8 -29 14 4 129 21 74 30
94 42 91 9 -2 26 -7 39 -11z m-502 -23 c24 -19 44 -53 44 -75 0 -10 -25 -23
-71 -37 -59 -18 -69 -23 -59 -36 16 -18 44 -18 82 2 27 14 32 14 45 1 9 -8 12
-20 8 -27 -11 -17 -85 -50 -115 -50 -32 0 -85 32 -101 62 -19 36 -15 104 7
129 41 47 122 62 160 31z m-303 -72 c5 0 17 5 28 10 16 9 21 6 31 -16 8 -17 9
-29 3 -31 -35 -12 -37 -20 -16 -61 25 -49 37 -58 56 -42 17 14 45 -2 45 -26 0
-23 -57 -56 -92 -52 -29 3 -37 10 -63 60 -22 43 -34 56 -47 52 -23 -7 -44 32
-28 51 8 10 8 19 -2 34 -12 19 -10 24 17 45 l30 24 15 -24 c8 -13 18 -24 23
-24z m1132 -33 c22 -12 46 -35 55 -50 14 -26 13 -31 -29 -111 l-44 -84 -34 16
c-18 9 -33 19 -33 23 0 3 -13 9 -30 12 -83 17 -95 113 -17 140 10 4 37 0 60
-8 53 -18 57 -18 57 0 0 9 -17 20 -45 27 -37 10 -45 16 -45 35 0 19 5 23 33
23 17 0 50 -10 72 -23z m-1213 -127 l33 -29 -52 -46 c-59 -52 -65 -65 -29 -65
15 0 34 12 50 31 27 32 58 36 64 7 5 -25 -55 -86 -98 -99 -129 -39 -206 143
-91 214 41 26 86 21 123 -13z m1398 -26 c21 -21 22 -27 10 -34 -11 -7 -6 -10
18 -10 40 0 52 -23 27 -50 -19 -21 -45 -27 -45 -11 0 5 -10 13 -21 16 -17 6
-32 -3 -70 -41 l-49 -48 -25 24 c-14 13 -25 28 -25 34 0 14 131 146 145 146 7
0 22 -11 35 -26z m-580 -34 c218 -62 412 -233 495 -438 55 -136 74 -321 45
-457 -37 -180 -151 -358 -295 -460 -145 -103 -277 -146 -450 -147 -130 -1
-214 17 -330 71 -185 87 -326 245 -398 448 -30 83 -32 96 -32 238 0 130 3 160
23 225 91 291 327 495 627 544 65 10 241 -3 315 -24z m-1019 -127 c43 -62 79
-116 79 -120 -1 -4 -11 -21 -24 -36 l-23 -29 -144 38 c-79 20 -146 39 -148 41
-5 4 32 73 39 73 3 0 49 -13 100 -30 52 -16 96 -30 98 -30 2 0 -26 38 -62 84
-37 46 -66 87 -66 90 0 4 10 20 22 37 21 28 23 29 36 12 7 -10 49 -68 93 -130z
m1719 32 l22 -36 -40 -52 c-23 -28 -40 -53 -38 -54 1 -2 30 8 64 21 l61 24 20
-31 c15 -23 17 -33 8 -38 -7 -4 -67 -20 -135 -38 -114 -29 -125 -30 -152 -16
-16 8 -34 25 -41 36 -9 18 -7 25 10 42 20 20 21 20 40 3 11 -10 24 -15 30 -12
5 4 35 47 67 96 31 50 58 90 59 90 2 0 13 -16 25 -35z m-1862 -555 c47 0 55
-14 22 -38 -27 -21 -30 -26 -24 -62 7 -45 5 -46 -37 -24 -28 14 -32 14 -65 -6
l-35 -22 7 42 c6 36 3 45 -20 69 -30 31 -26 41 19 41 26 0 34 6 49 37 l18 38
19 -38 c15 -29 25 -37 47 -37z m2042 0 c40 0 44 -13 14 -41 -21 -20 -24 -29
-19 -61 8 -43 6 -44 -36 -22 -28 14 -33 14 -65 -5 l-35 -21 6 43 c6 37 3 45
-19 66 -31 29 -26 41 18 41 28 0 35 6 50 37 l18 38 19 -38 c16 -30 25 -37 49
-37z m-2149 -635 c91 -31 163 -118 175 -211 4 -27 11 -55 17 -61 7 -10 192
-13 866 -13 471 0 861 4 867 8 6 4 15 27 19 52 11 65 28 102 71 150 93 103
233 117 345 35 127 -92 133 -271 13 -390 -30 -29 -54 -56 -54 -60 0 -4 19 -24
43 -45 114 -101 127 -275 28 -377 -57 -59 -103 -78 -192 -78 -67 0 -81 4 -124
30 -62 39 -102 95 -125 176 l-17 64 -874 0 -874 0 -6 -46 c-20 -138 -143 -239
-277 -226 -71 6 -128 34 -172 83 -45 52 -62 99 -62 169 0 79 20 123 88 195
l57 60 -47 41 c-26 23 -58 64 -72 92 -23 44 -26 60 -22 127 2 63 8 84 30 117
69 104 186 146 299 108z"/>
<path d="M1187 2619 c-9 -6 -17 -17 -17 -26 0 -12 6 -14 28 -8 38 9 47 21 25
33 -12 7 -25 7 -36 1z"/>
<path d="M2000 2430 c0 -27 27 -37 47 -17 20 19 9 37 -23 37 -17 0 -24 -5 -24
-20z"/>
<path d="M780 2380 c-17 -33 -1 -44 26 -19 13 12 24 26 24 31 0 17 -40 7 -50
-12z"/>
<path d="M1656 2235 c-50 -17 -71 -38 -102 -100 -44 -91 -32 -222 27 -290 55
-62 138 -70 200 -17 92 77 97 266 10 363 -44 48 -84 61 -135 44z"/>
<path d="M1227 2210 c-102 -90 -107 -300 -8 -382 59 -50 126 -49 185 2 73 65
92 202 42 304 -36 74 -78 106 -139 106 -37 0 -53 -6 -80 -30z"/>
<path d="M942 1970 c-48 -29 -86 -117 -87 -195 0 -103 55 -165 149 -165 113 0
172 139 112 265 -46 97 -112 134 -174 95z"/>
<path d="M1960 1968 c-114 -77 -134 -252 -38 -333 38 -32 108 -34 156 -5 38
24 71 88 72 141 0 57 -29 138 -63 175 -43 46 -82 52 -127 22z"/>
<path d="M1265 1737 c-118 -46 -185 -148 -185 -281 1 -112 51 -183 210 -296
93 -66 175 -144 199 -189 12 -22 13 -22 38 16 40 61 82 100 174 163 165 113
224 195 223 310 -1 120 -80 240 -181 274 -85 29 -140 16 -203 -49 l-33 -34
-46 39 c-71 60 -127 73 -196 47z m297 -239 l3 -63 63 -3 62 -3 0 -59 0 -60
-65 0 -65 0 0 -60 0 -60 -60 0 -60 0 0 60 0 60 -65 0 -65 0 0 60 0 60 65 0 65
0 0 65 0 65 60 0 59 0 3 -62z"/>
</g>
</svg>
