<?xml version="1.0" standalone="no"?>
<!DOCTYPE svg PUBLIC "-//W3C//DTD SVG 20010904//EN"
 "http://www.w3.org/TR/2001/REC-SVG-20010904/DTD/svg10.dtd">
<svg version="1.0" xmlns="http://www.w3.org/2000/svg"
  viewBox="0 0 300 300"
 preserveAspectRatio="xMidYMid meet">
<metadata>
Created by potrace 1.10, written by Peter Selinger 2001-2011
</metadata>
<g transform="translate(0.000000,300.000000) scale(0.100000,-0.100000)"
fill="#009999" stroke="none">
<path d="M713 2715 c-319 -73 -556 -330 -603 -654 -29 -194 27 -424 156 -641
169 -284 519 -637 924 -931 134 -97 324 -219 341 -219 24 0 434 308 455 341 4
7 13 4 24 -6 23 -20 91 -31 115 -18 15 9 44 71 45 95 0 4 -10 16 -22 28 l-22
20 59 60 c33 33 62 60 66 60 3 0 14 -18 24 -41 25 -54 49 -69 111 -69 62 0 84
7 84 26 0 8 10 14 23 14 35 0 59 22 55 50 -2 19 -14 28 -52 42 -28 9 -55 25
-60 35 -32 54 -24 162 28 363 32 122 37 134 79 179 83 89 137 226 137 348 0
109 32 153 111 153 21 0 42 12 72 40 50 47 47 60 -31 104 -39 23 -55 39 -67
70 -25 61 -62 105 -110 128 -41 20 -43 23 -49 78 -4 31 -13 65 -20 75 -12 17
-16 16 -44 -24 -17 -23 -36 -58 -42 -76 -8 -23 -25 -42 -55 -59 -80 -48 -133
-121 -214 -298 -37 -80 -50 -82 -350 -73 -438 14 -449 14 -525 -24 -85 -42
-169 -139 -232 -271 -26 -52 -65 -133 -88 -180 -28 -58 -59 -103 -97 -141 -54
-54 -56 -57 -35 -67 72 -35 138 -15 229 68 l65 60 -3 -72 c-4 -68 -7 -76 -56
-146 -46 -66 -50 -77 -44 -110 13 -72 85 -279 103 -294 9 -9 38 -19 63 -22 31
-5 53 -15 67 -31 12 -14 34 -27 49 -31 15 -4 42 -19 58 -34 42 -39 68 -50 112
-50 44 0 63 14 63 46 0 25 -15 40 -52 49 -32 8 -78 71 -78 106 1 30 118 171
179 214 42 30 44 30 154 27 74 -2 116 -7 125 -15 14 -15 43 -163 49 -258 l5
-66 -129 -85 c-133 -88 -317 -198 -333 -198 -14 0 -237 151 -355 240 -330 250
-612 530 -775 770 -57 84 -134 241 -159 325 -118 396 84 776 469 882 47 12
101 17 190 17 110 0 134 -3 198 -26 138 -50 272 -149 376 -278 55 -68 60 -72
73 -54 73 102 150 186 216 239 143 114 273 163 442 166 112 2 51 16 -76 18
-122 1 -224 -24 -335 -83 -88 -47 -179 -112 -228 -165 l-29 -30 -92 87 c-99
95 -199 158 -317 200 -63 22 -92 26 -213 28 -94 2 -160 -2 -202 -11z m1722
-980 c5 -35 12 -55 20 -55 16 0 65 -56 65 -74 0 -7 9 -21 21 -32 16 -15 20
-26 15 -53 -8 -49 -40 -78 -101 -92 l-53 -12 -6 -53 c-6 -56 -47 -176 -69
-202 -6 -9 -34 -33 -62 -55 -66 -51 -132 -141 -139 -186 -3 -20 -8 -75 -12
-123 -6 -81 -5 -87 15 -100 25 -15 26 -25 5 -66 -13 -28 -21 -32 -54 -32 -50
0 -61 17 -67 97 -2 38 -10 100 -18 138 -8 39 -17 91 -20 117 -3 25 -12 51 -19
57 -14 12 -131 25 -208 25 -67 -1 -124 -39 -212 -143 -78 -92 -89 -118 -65
-164 20 -39 61 -76 91 -82 23 -5 28 -12 26 -28 -3 -19 -9 -22 -51 -21 -41 0
-53 5 -85 37 -21 21 -48 37 -60 37 -34 0 -70 46 -93 119 -17 56 -20 81 -14
166 l6 100 -38 70 c-36 67 -38 75 -39 165 0 65 -6 107 -17 132 -38 85 -9 196
62 236 47 26 128 29 191 7 47 -16 117 -20 138 -6 8 4 19 19 26 32 24 49 79 16
61 -37 -25 -70 -137 -92 -242 -46 -83 36 -149 24 -187 -32 -24 -38 -19 -121
10 -155 2 -2 15 6 30 18 69 54 191 64 619 51 193 -6 201 -3 287 112 32 42 66
79 76 82 10 3 25 18 34 33 9 16 28 39 42 52 21 20 26 21 26 8 0 -23 17 -21 30
3 16 31 28 16 35 -45z m-208 -772 c-4 -22 -1 -46 8 -64 8 -15 15 -30 15 -33 0
-8 -110 -89 -115 -85 -2 3 0 41 4 86 7 70 13 86 42 122 28 35 34 39 42 25 5
-9 7 -32 4 -51z m-968 -88 l-1 -40 -15 35 c-9 19 -18 58 -20 85 l-3 50 19 -45
c11 -25 20 -63 20 -85z m1105 -12 c4 -13 3 -23 -2 -23 -12 0 -32 46 -32 73 1
21 1 21 14 -3 7 -14 17 -35 20 -47z"/>
<path d="M2308 2663 c7 -3 16 -2 19 1 4 3 -2 6 -13 5 -11 0 -14 -3 -6 -6z"/>
<path d="M700 2210 l0 -80 -80 0 -81 0 3 -82 3 -83 78 -3 77 -3 0 -79 0 -80
90 0 90 0 0 80 0 80 75 0 75 0 0 85 0 85 -75 0 -75 0 0 80 0 80 -90 0 -90 0 0
-80z"/>
</g>
</svg>
