<?xml version="1.0" standalone="no"?>
<!DOCTYPE svg PUBLIC "-//W3C//DTD SVG 20010904//EN"
 "http://www.w3.org/TR/2001/REC-SVG-20010904/DTD/svg10.dtd">
<svg version="1.0" xmlns="http://www.w3.org/2000/svg"
 width="300.000000pt" height="200.000000pt" viewBox="0 0 300.000000 200.000000"
 preserveAspectRatio="xMidYMid meet">
<metadata>
Created by potrace 1.10, written by Peter Selinger 2001-2011
</metadata>
<g transform="translate(0.000000,200.000000) scale(0.050000,-0.050000)"
fill="#000000" stroke="none">
<path d="M2410 3272 c-340 -153 -177 -872 197 -872 231 0 339 373 193 661 -40
78 -185 219 -225 219 -14 0 -43 5 -65 10 -22 5 -67 -3 -100 -18z"/>
<path d="M3432 3280 c-132 -41 -253 -209 -289 -401 -77 -417 248 -636 502
-339 259 303 105 837 -213 740z"/>
<path d="M1744 2529 c-204 -143 -80 -561 200 -678 317 -132 454 276 190 564
-128 139 -287 185 -390 114z"/>
<path d="M4010 2532 c-97 -43 -224 -196 -259 -314 -105 -355 178 -528 446
-272 295 283 151 734 -187 586z"/>
<path d="M2769 2292 c-119 -55 -216 -164 -261 -292 -56 -162 -97 -227 -175
-279 -285 -190 -371 -406 -210 -526 123 -92 406 191 498 501 63 211 270 268
434 118 59 -54 57 -74 -10 -76 -49 -2 -47 -4 15 -17 39 -7 99 -29 134 -47 35
-19 79 -34 98 -34 56 0 18 -121 -57 -184 -111 -93 -368 -101 -532 -18 -101 52
-110 52 -97 2 7 -26 0 -40 -18 -40 -32 0 -37 -32 -8 -50 13 -8 6 -33 -18 -67
-105 -147 -37 -343 95 -274 76 39 144 40 194 2 71 -52 -14 -107 -222 -144
-170 -30 -239 -66 -223 -116 12 -34 102 -47 136 -18 72 62 440 78 639 28 205
-51 326 -46 479 21 369 163 397 645 53 888 -133 93 -181 160 -224 307 -87 299
-432 450 -720 315z"/>
<path d="M2764 1838 c-83 -31 -129 -209 -84 -327 40 -106 119 -32 121 115 0
35 13 97 27 138 30 83 13 102 -64 74z"/>
</g>
</svg>
