<?xml version="1.0" standalone="no"?>
<!DOCTYPE svg PUBLIC "-//W3C//DTD SVG 20010904//EN"
 "http://www.w3.org/TR/2001/REC-SVG-20010904/DTD/svg10.dtd">
<svg version="1.0" xmlns="http://www.w3.org/2000/svg"
 width="300.000000pt" height="200.000000pt" viewBox="0 0 300.000000 200.000000"
 preserveAspectRatio="xMidYMid meet">
<metadata>
Created by potrace 1.10, written by Peter Selinger 2001-2011
</metadata>
<g transform="translate(0.000000,200.000000) scale(0.050000,-0.050000)"
fill="#000000" stroke="none">
<path d="M2200 3768 c-485 -210 -253 -1247 270 -1204 471 39 461 938 -13 1174
-140 70 -159 72 -257 30z"/>
<path d="M3570 3753 c-491 -228 -522 -1149 -40 -1189 518 -43 757 978 280
1198 -103 48 -120 47 -240 -9z"/>
<path d="M1278 2735 c-339 -226 -23 -957 415 -964 445 -6 381 749 -82 966
-120 57 -246 56 -333 -2z"/>
<path d="M4430 2756 c-239 -85 -418 -354 -419 -629 -2 -571 686 -432 840 170
83 326 -132 561 -421 459z"/>
<path d="M2777 2453 c-252 -94 -411 -265 -477 -513 -41 -156 -113 -257 -247
-343 -308 -198 -424 -407 -336 -605 85 -191 202 -177 431 54 174 175 265 324
323 524 88 305 389 398 598 184 l81 -83 -70 -12 -70 -12 80 -16 c44 -9 116
-37 160 -61 44 -25 106 -51 137 -59 86 -20 40 -214 -60 -252 -30 -11 -65 -36
-79 -55 -50 -69 -488 -48 -655 31 l-138 65 9 -60 c8 -52 3 -60 -37 -60 -53 0
-63 -30 -17 -47 41 -16 38 -46 -15 -120 -31 -43 -46 -95 -48 -163 -2 -55 -6
-118 -10 -139 -11 -62 92 -105 172 -71 160 67 317 49 307 -36 -8 -71 -101
-116 -319 -156 -273 -49 -279 -51 -302 -100 -41 -91 70 -144 171 -80 134 86
656 103 912 30 890 -255 1439 759 687 1269 -164 111 -229 196 -276 363 -113
406 -552 658 -912 523z"/>
<path d="M2653 1777 c-97 -56 -147 -334 -82 -458 64 -125 132 -38 159 201 8
72 27 160 42 197 15 38 28 71 28 75 0 17 -112 5 -147 -15z"/>
</g>
</svg>
