<?xml version="1.0" standalone="no"?>
<!DOCTYPE svg PUBLIC "-//W3C//DTD SVG 20010904//EN"
 "http://www.w3.org/TR/2001/REC-SVG-20010904/DTD/svg10.dtd">
<svg version="1.0" xmlns="http://www.w3.org/2000/svg"
 width="300.000000pt" height="300.000000pt" viewBox="0 0 300.000000 300.000000"
 preserveAspectRatio="xMidYMid meet">
<metadata>
Created by potrace 1.10, written by Peter Selinger 2001-2011
</metadata>
<g transform="translate(0.000000,300.000000) scale(0.100000,-0.100000)"
fill="#008888" stroke="none">
<path d="M1105 2704 c-231 -48 -372 -118 -511 -258 -316 -316 -358 -816 -99
-1182 61 -85 187 -200 283 -258 45 -27 126 -63 179 -82 239 -81 481 -64 707
50 l105 52 298 -298 c164 -165 312 -307 328 -318 89 -56 203 -43 269 30 45 50
56 77 56 138 -1 91 -20 116 -352 449 l-311 312 30 68 c110 240 117 487 23 733
-110 283 -384 505 -694 559 -57 10 -268 13 -311 5z m384 -219 c111 -38 209
-104 299 -200 323 -346 224 -911 -198 -1129 -370 -191 -808 -50 -994 321 -125
249 -92 555 83 773 104 129 222 206 386 251 57 15 95 18 205 16 117 -3 146 -7
219 -32z"/>
<path d="M1403 2353 c-13 -2 -38 -22 -57 -44 -86 -101 -79 -289 13 -343 38
-22 67 -16 112 21 136 115 84 394 -68 366z"/>
<path d="M1011 2325 c-37 -32 -55 -83 -54 -161 1 -75 27 -138 77 -181 47 -42
84 -43 129 -3 56 48 72 146 42 246 -34 111 -125 157 -194 99z"/>
<path d="M767 2059 c-32 -24 -51 -89 -43 -142 15 -93 88 -177 154 -177 132 0
134 229 3 317 -42 28 -80 29 -114 2z"/>
<path d="M1619 2057 c-48 -32 -89 -116 -89 -184 0 -59 19 -107 49 -123 85 -45
202 67 203 194 1 117 -77 171 -163 113z"/>
<path d="M1197 1876 c-149 -55 -327 -300 -327 -450 0 -44 34 -95 75 -112 47
-19 97 -18 186 6 93 25 145 25 239 0 89 -23 139 -25 184 -6 88 37 102 130 37
262 -45 91 -71 128 -144 203 -92 94 -173 125 -250 97z"/>
</g>
</svg>
