<?xml version="1.0" standalone="no"?>
<!DOCTYPE svg PUBLIC "-//W3C//DTD SVG 20010904//EN"
 "http://www.w3.org/TR/2001/REC-SVG-20010904/DTD/svg10.dtd">
<svg version="1.0" xmlns="http://www.w3.org/2000/svg"
 width="300.000000pt" height="300.000000pt" viewBox="0 0 300.000000 300.000000"
 preserveAspectRatio="xMidYMid meet">
<metadata>
Created by potrace 1.10, written by Peter Selinger 2001-2011
</metadata>
<g transform="translate(0.000000,300.000000) scale(0.100000,-0.100000)"
fill="#000000" stroke="none">
<path d="M937 2579 c-136 -32 -239 -149 -274 -313 -38 -178 33 -408 181 -593
36 -45 66 -86 66 -91 0 -16 97 -99 177 -151 41 -27 117 -68 169 -92 l95 -44
-8 -65 c-15 -125 -10 -418 10 -501 40 -169 127 -293 246 -352 60 -29 75 -32
161 -32 88 0 101 3 162 33 123 60 217 193 257 359 l18 76 44 13 c100 30 163
116 163 224 0 240 -312 330 -439 126 -21 -36 -30 -62 -31 -100 -2 -64 6 -117
16 -111 14 9 40 -7 40 -24 0 -12 -2 -13 -9 -3 -7 11 -9 11 -14 -1 -6 -17 53
-77 100 -101 l31 -16 -14 -61 c-32 -138 -118 -257 -217 -299 -42 -18 -64 -22
-122 -18 -146 10 -241 103 -292 289 -15 53 -18 102 -17 284 1 121 5 233 11
249 7 24 23 35 84 61 102 44 189 96 287 172 73 57 86 72 84 94 -1 3 22 33 49
65 107 125 178 280 199 434 42 306 -171 547 -431 487 -35 -8 -74 -15 -86 -15
-37 -1 -110 -38 -128 -65 -14 -21 -14 -30 -4 -49 31 -60 85 -51 171 30 33 31
44 35 105 39 92 7 155 -19 223 -94 116 -127 120 -350 10 -562 -44 -84 -124
-190 -156 -206 -11 -5 -50 -34 -88 -64 -88 -70 -210 -143 -295 -176 l-69 -27
-106 50 c-112 54 -233 132 -281 182 -16 16 -36 30 -45 30 -19 0 -76 58 -117
120 -179 267 -177 568 4 700 55 40 106 53 180 47 57 -4 70 -9 101 -39 75 -71
123 -86 155 -50 27 29 21 68 -12 92 -34 24 -101 49 -117 43 -6 -2 -37 3 -69
12 -65 17 -101 18 -158 4z m1303 -1381 c24 -13 53 -35 64 -50 23 -33 33 -126
16 -157 -8 -17 -8 -26 0 -36 8 -10 8 -15 0 -20 -6 -4 -14 -4 -17 -1 -3 3 -25
-6 -48 -19 -29 -18 -57 -25 -91 -25 -35 0 -45 3 -34 10 12 8 10 10 -9 10 -40
0 -91 23 -91 40 0 8 -7 26 -16 38 -13 19 -19 21 -30 11 -12 -10 -18 -9 -30 3
-14 14 -14 17 1 32 13 12 21 14 30 6 10 -8 14 0 20 36 4 32 17 57 42 85 55 61
121 73 193 37z"/>
<path d="M2101 1124 c-22 -18 -31 -35 -31 -55 0 -16 4 -29 10 -29 5 0 7 -6 4
-14 -3 -8 0 -17 5 -21 6 -3 9 -11 5 -16 -7 -12 56 -39 82 -34 10 2 27 4 37 4
23 1 57 58 57 97 0 21 -10 42 -29 63 -38 41 -95 43 -140 5z"/>
<path d="M1960 1020 c0 -5 5 -10 10 -10 6 0 10 5 10 10 0 6 -4 10 -10 10 -5 0
-10 -4 -10 -10z"/>
<path d="M1255 2268 c-28 -16 -43 -38 -50 -75 -7 -36 16 -99 43 -119 27 -21
70 -17 97 11 46 45 28 157 -30 183 -31 14 -35 14 -60 0z"/>
<path d="M1489 2265 c-79 -43 -63 -195 21 -203 89 -9 129 138 53 198 -30 23
-39 24 -74 5z"/>
<path d="M1060 2100 c-27 -27 -35 -65 -21 -109 14 -48 43 -74 83 -74 41 0 68
33 68 85 0 93 -77 151 -130 98z"/>
<path d="M1655 2098 c-52 -46 -48 -149 7 -176 23 -11 32 -10 58 3 61 31 75
122 28 172 -27 29 -60 29 -93 1z"/>
<path d="M1324 2001 c-110 -50 -186 -190 -154 -285 23 -71 98 -89 188 -47 47
22 53 23 75 8 34 -22 95 -37 128 -30 108 21 114 170 12 283 -78 87 -162 110
-249 71z"/>
<path d="M2532 1035 c1 -25 5 -48 10 -51 4 -3 8 18 8 45 0 28 -4 51 -9 51 -5
0 -9 -20 -9 -45z"/>
</g>
</svg>
