<?xml version="1.0" standalone="no"?>
<!DOCTYPE svg PUBLIC "-//W3C//DTD SVG 20010904//EN"
 "http://www.w3.org/TR/2001/REC-SVG-20010904/DTD/svg10.dtd">
<svg version="1.0" xmlns="http://www.w3.org/2000/svg"
 width="900.000000pt" height="900.000000pt" viewBox="0 0 900.000000 900.000000"
 preserveAspectRatio="xMidYMid meet">
<metadata>
Created by potrace 1.10, written by Peter Selinger 2001-2011
</metadata>
<g transform="translate(0.000000,900.000000) scale(0.100000,-0.100000)"
fill="#082f49" stroke="none">
<path d="M8040 8001 c-39 -8 -95 -39 -147 -79 -61 -45 -133 -166 -133 -221 0
-32 -26 -72 -65 -102 -17 -13 -62 -50 -101 -84 -39 -33 -104 -88 -145 -122
-41 -33 -83 -69 -94 -80 -142 -128 -163 -138 -301 -152 -49 -6 -118 -14 -154
-20 -36 -5 -121 -17 -190 -26 -69 -9 -164 -22 -211 -30 -47 -8 -103 -15 -125
-15 -21 0 -59 -5 -84 -11 -25 -6 -81 -14 -125 -19 -44 -4 -111 -13 -150 -19
-72 -10 -203 -28 -425 -56 -69 -9 -166 -22 -216 -30 -49 -8 -108 -15 -129 -15
-21 0 -80 -6 -129 -14 -218 -35 -304 -46 -341 -46 -22 -1 -69 -7 -105 -15 -36
-8 -83 -14 -105 -15 -22 0 -89 -7 -150 -15 -60 -9 -159 -22 -220 -30 -457 -59
-559 -72 -680 -90 -55 -8 -118 -15 -140 -15 -22 0 -60 -5 -85 -11 -24 -5 -83
-14 -130 -19 -47 -4 -116 -13 -155 -19 -38 -5 -124 -17 -190 -26 -66 -9 -151
-21 -190 -26 -38 -6 -106 -14 -150 -19 -44 -4 -111 -13 -150 -19 -38 -6 -124
-18 -190 -26 -66 -9 -151 -21 -190 -27 -38 -6 -99 -14 -135 -18 -94 -10 -232
-29 -330 -46 -47 -8 -103 -14 -124 -14 -22 0 -81 -7 -130 -15 -50 -8 -147 -21
-216 -30 -69 -9 -170 -22 -225 -30 -55 -8 -125 -17 -155 -20 -120 -13 -176
-45 -199 -116 -10 -31 -8 -48 9 -110 12 -41 25 -90 30 -109 5 -19 16 -60 26
-90 9 -30 22 -75 30 -100 7 -25 23 -76 34 -115 11 -38 27 -92 36 -120 8 -27
19 -66 24 -85 4 -19 13 -50 19 -67 6 -18 16 -48 22 -65 6 -18 15 -49 19 -68 5
-19 16 -60 26 -90 9 -30 23 -77 31 -105 8 -27 22 -72 30 -100 8 -27 21 -70 29
-95 7 -25 23 -76 34 -115 30 -102 48 -164 66 -220 8 -27 19 -66 24 -85 4 -19
13 -48 18 -65 6 -16 18 -57 28 -90 9 -33 23 -78 29 -100 7 -22 21 -67 30 -100
10 -33 23 -78 30 -100 13 -42 37 -126 62 -210 8 -27 19 -63 25 -80 5 -16 14
-46 18 -65 5 -19 16 -57 24 -85 39 -128 58 -193 65 -225 14 -59 38 -103 73
-138 l35 -33 2715 1 c1494 0 2723 -2 2731 -6 17 -6 57 -76 57 -98 0 -8 6 -27
14 -43 13 -26 23 -51 63 -158 8 -22 21 -55 29 -73 12 -29 18 -68 12 -74 -2 -2
-1312 -5 -2913 -9 -1845 -4 -2939 -10 -2990 -17 -183 -23 -324 -67 -463 -146
-123 -70 -138 -231 -29 -316 18 -15 47 -24 86 -27 60 -6 75 -1 205 69 50 27
154 56 261 72 141 22 577 23 595 1 16 -19 5 -64 -18 -71 -9 -3 -24 -10 -32
-15 -8 -5 -22 -12 -30 -16 -40 -18 -134 -100 -172 -151 -76 -100 -107 -178
-114 -289 -11 -171 31 -301 135 -418 43 -48 131 -116 171 -131 8 -3 24 -10 34
-16 11 -6 49 -17 85 -24 169 -36 330 1 466 106 60 47 86 75 129 143 44 71 56
101 72 177 56 262 -68 511 -309 624 -55 26 -58 29 -55 59 l3 32 2055 3 c1130
1 2065 0 2078 -3 17 -4 22 -12 22 -38 0 -30 -6 -35 -76 -72 -219 -115 -333
-365 -280 -616 12 -59 20 -81 48 -129 4 -8 11 -22 15 -30 12 -27 67 -94 111
-135 89 -82 244 -144 363 -145 135 0 282 63 384 165 114 114 165 235 165 396
0 149 -49 272 -156 388 -57 61 -87 81 -214 141 -19 9 -25 47 -10 66 10 12 69
14 361 14 l349 0 39 24 c60 38 81 75 81 140 0 30 -6 70 -14 88 -8 18 -22 53
-31 78 -10 25 -23 59 -30 75 -7 17 -21 50 -30 75 -9 25 -23 59 -30 75 -12 30
-31 77 -61 158 -9 23 -22 56 -29 72 -14 33 -39 98 -62 160 -8 22 -21 54 -28
70 -7 17 -19 48 -28 70 -8 22 -22 59 -31 83 -9 23 -23 61 -32 85 -9 23 -22 56
-29 73 -29 68 -28 128 5 299 35 178 59 311 66 360 3 17 11 64 19 105 7 41 21
118 30 170 9 52 22 129 30 170 7 41 21 120 30 175 16 98 27 162 59 336 9 48
16 97 16 110 0 13 6 56 14 94 8 39 22 115 31 170 36 221 47 283 61 350 8 39
14 81 14 95 0 14 6 57 14 95 26 128 46 242 46 266 0 13 6 56 14 94 31 149 46
232 46 260 0 59 28 138 57 162 15 13 39 34 53 46 44 41 269 207 295 219 26 12
35 9 109 -30 47 -25 238 -23 296 3 104 46 179 121 225 225 16 36 20 66 20 160
-1 111 -2 117 -35 178 -39 73 -120 152 -188 183 -51 23 -215 35 -282 20z
m-924 -1238 c-4 -21 -11 -69 -15 -108 -5 -38 -13 -97 -19 -130 -6 -33 -18
-105 -27 -160 -26 -156 -39 -216 -50 -231 -7 -10 -60 -17 -200 -24 -104 -6
-217 -14 -251 -18 -34 -5 -66 -6 -73 -4 -15 5 -14 68 3 187 21 136 45 318 52
387 3 31 11 61 17 66 7 5 37 12 67 15 78 7 212 26 300 41 41 8 104 14 139 15
l64 1 -7 -37z m-828 -117 c2 -32 -2 -82 -8 -110 -6 -28 -15 -96 -20 -151 -8
-92 -26 -239 -36 -292 -5 -28 -55 -43 -144 -43 -36 0 -108 -6 -160 -14 -52 -8
-131 -16 -175 -17 l-80 -4 1 40 c0 37 7 118 36 428 7 72 16 124 25 132 7 8 37
18 65 24 87 16 271 41 308 42 19 0 62 6 95 14 88 20 90 19 93 -49z m-833 -163
c-4 -60 -13 -167 -21 -240 -8 -73 -14 -152 -14 -177 0 -62 -17 -76 -93 -76
-34 0 -111 -7 -172 -15 -60 -8 -152 -15 -204 -15 l-94 0 6 78 c4 42 10 165 13
272 4 107 11 201 17 208 5 7 32 12 61 12 28 0 78 7 111 15 33 8 80 15 105 15
25 0 70 7 100 15 30 7 86 14 123 14 l68 1 -6 -107z m-818 -8 c6 -17 -20 -531
-27 -538 -11 -10 -285 -37 -405 -39 l-130 -3 -7 250 c-7 215 -6 252 7 261 23
17 89 28 440 72 106 14 115 13 122 -3z m-819 -347 l-3 -253 -105 -17 c-58 -9
-135 -17 -171 -17 -37 -1 -105 -8 -152 -16 -47 -8 -92 -12 -100 -9 -12 4 -17
31 -21 107 -12 225 -15 373 -8 383 4 6 34 14 67 16 33 3 92 10 130 16 39 6
111 18 160 25 50 8 116 15 148 16 l57 1 -2 -252z m-813 125 c12 -31 26 -425
15 -439 -12 -13 -137 -34 -210 -34 -27 0 -94 -7 -148 -16 -55 -8 -117 -14
-138 -12 -35 3 -39 6 -41 33 -3 32 -28 225 -43 335 -12 81 -10 83 112 99 51 6
138 18 193 26 189 28 251 30 260 8z m-822 -105 c3 -13 10 -59 17 -103 6 -44
16 -111 22 -150 23 -147 23 -154 -7 -165 -14 -5 -50 -10 -79 -10 -29 0 -97 -6
-152 -14 -54 -8 -139 -16 -188 -18 l-89 -3 -19 85 c-11 47 -26 119 -34 160 -9
41 -19 93 -24 115 -11 50 5 65 69 65 25 0 91 6 146 15 356 53 331 51 338 23z
m-805 -101 c6 -7 14 -33 17 -57 7 -48 24 -132 51 -248 9 -40 14 -75 12 -78
-10 -9 -161 -34 -211 -34 -29 -1 -81 -7 -117 -15 -88 -19 -174 -19 -190 0 -7
9 -16 32 -21 53 -4 20 -17 69 -29 107 -12 39 -25 86 -30 105 -4 19 -14 49 -21
67 -7 18 -11 34 -8 37 3 3 52 12 109 21 58 8 139 21 180 27 41 7 107 15 145
18 39 4 77 7 86 8 9 1 21 -4 27 -11z m5588 -204 c-4 -27 -10 -77 -15 -113 -5
-36 -14 -87 -19 -115 -6 -27 -18 -95 -27 -150 -9 -55 -23 -128 -31 -162 -8
-34 -14 -74 -14 -88 0 -14 -6 -28 -12 -30 -21 -7 -452 -32 -466 -27 -16 6 -10
122 14 262 8 47 14 110 14 140 1 30 7 84 15 120 8 36 14 86 15 112 0 56 -7 53
165 68 72 6 171 14 220 19 162 15 149 18 141 -36z m-776 -50 c0 -10 -4 -52 -9
-93 -6 -41 -17 -138 -26 -215 -33 -293 -37 -320 -50 -330 -18 -14 -486 -38
-498 -26 -6 6 -3 65 6 158 9 81 21 213 27 293 17 221 -6 194 183 212 89 8 208
16 265 17 91 1 102 -1 102 -16z m-800 -140 c-1 -54 -5 -129 -10 -168 -5 -38
-14 -135 -19 -214 -6 -88 -15 -147 -22 -151 -22 -14 -213 -30 -361 -30 l-151
0 7 133 c3 72 9 208 13 300 4 125 10 172 20 183 10 9 38 14 86 15 40 0 128 6
197 13 69 8 151 14 183 15 l57 1 0 -97z m-786 28 c3 -5 1 -75 -4 -157 -5 -82
-13 -216 -16 -297 -4 -81 -11 -150 -16 -153 -5 -3 -109 -10 -231 -14 -122 -5
-231 -11 -242 -12 -20 -3 -20 3 -20 302 l0 305 100 7 c55 4 132 11 170 16 93
12 252 14 259 3z m-778 -65 c3 -7 2 -141 -3 -297 l-8 -284 -145 -7 c-80 -5
-187 -12 -238 -16 -58 -5 -96 -4 -102 2 -6 6 -10 33 -10 60 0 28 -7 114 -15
191 -17 160 -20 311 -5 320 5 3 80 10 167 16 87 5 176 14 198 18 68 15 155 13
161 -3z m-774 -156 c3 -58 11 -157 17 -220 13 -135 14 -227 4 -233 -15 -9
-470 -40 -486 -34 -14 5 -17 21 -17 81 0 41 -7 110 -15 153 -8 43 -15 96 -15
118 -1 22 -7 69 -15 105 -8 41 -10 69 -4 76 13 16 61 22 251 34 89 6 179 15
198 19 73 19 74 18 82 -99z m-788 22 c9 -15 36 -201 36 -249 0 -26 5 -96 12
-155 9 -77 9 -111 1 -119 -6 -6 -92 -14 -204 -20 -107 -5 -206 -11 -221 -14
-22 -5 -29 -1 -42 24 -9 16 -20 58 -25 93 -10 63 -21 124 -47 253 -7 39 -15
88 -16 110 l-3 39 115 13 c63 7 169 17 235 22 66 4 128 9 137 10 9 0 19 -3 22
-7z m-765 -80 c5 -9 12 -35 16 -57 6 -43 29 -151 47 -225 13 -57 29 -147 31
-180 2 -25 1 -25 -103 -31 -58 -4 -151 -12 -207 -18 -116 -13 -139 -7 -148 37
-3 15 -12 52 -21 82 -8 30 -21 78 -29 105 -18 71 -45 164 -57 203 -7 23 -7 37
0 44 15 15 86 27 162 28 36 1 99 7 140 14 112 20 157 19 169 -2z m5295 -527
c0 -27 -6 -77 -13 -110 -26 -124 -67 -367 -76 -444 -3 -30 -12 -69 -20 -88
l-14 -33 -203 2 -203 3 -4 35 c-2 19 4 85 12 145 18 126 44 339 52 437 4 37
12 71 18 76 10 9 357 31 427 28 23 -1 25 -4 24 -51z m-716 -30 c2 -27 -4 -90
-12 -141 -9 -50 -16 -114 -16 -142 0 -28 -7 -86 -15 -129 -8 -43 -15 -101 -15
-130 0 -28 -4 -63 -10 -78 l-10 -25 -232 2 -233 3 3 90 c2 50 8 119 13 155 5
36 14 143 19 239 7 122 13 177 22 183 7 4 58 8 113 9 55 1 152 5 215 9 166 10
154 13 158 -45z m-758 0 c10 -12 10 -41 -4 -148 -9 -72 -16 -168 -16 -212 0
-76 -15 -230 -26 -266 -4 -14 -35 -17 -214 -23 -115 -4 -220 -4 -233 -1 -33 9
-36 23 -26 146 5 57 13 194 17 304 l7 200 160 5 c319 11 322 11 335 -5z m-761
-24 c12 -7 13 -33 7 -138 -3 -70 -9 -204 -13 -298 -3 -93 -10 -176 -16 -182
-11 -15 -432 -19 -441 -4 -20 32 -16 568 5 602 6 11 54 15 216 20 114 3 213 6
218 7 6 1 16 -2 24 -7z m-734 -331 l0 -295 -214 -3 c-136 -1 -218 1 -226 8
-15 12 -22 90 -34 350 -6 119 -6 199 0 205 11 11 298 33 404 31 l70 -1 0 -295z
m-746 256 c14 -17 28 -187 33 -401 l3 -150 -210 -7 c-156 -5 -213 -3 -222 6
-7 6 -17 56 -22 111 -5 55 -14 136 -20 180 -19 147 -28 230 -25 236 2 3 68 10
146 14 79 4 168 11 198 15 88 12 107 11 119 -4z m-720 -44 c6 -10 15 -59 21
-108 6 -49 17 -136 25 -194 22 -159 24 -199 11 -209 -6 -5 -100 -11 -208 -12
-219 -2 -224 -1 -233 60 -3 20 -12 63 -19 96 -8 33 -21 96 -30 140 -9 44 -23
107 -30 140 -10 41 -11 64 -4 73 7 8 49 12 137 13 69 1 160 5 201 9 41 4 85 7
97 8 13 1 27 -6 32 -16z m-710 -51 c6 -10 13 -38 16 -62 6 -42 16 -92 48 -244
29 -131 29 -143 10 -153 -10 -5 -91 -12 -180 -15 l-162 -6 -21 26 c-11 14 -20
37 -20 50 0 13 -5 33 -10 44 -6 10 -15 38 -20 61 -5 24 -18 75 -30 113 -33
109 -43 166 -31 178 14 14 123 24 273 26 105 1 118 -1 127 -18z m4315 -700 c9
-8 11 -24 5 -63 -10 -67 -31 -238 -36 -300 -3 -26 -11 -52 -18 -58 -8 -7 -84
-9 -221 -8 l-209 3 -3 50 c-3 43 23 337 33 372 6 18 54 21 253 18 112 -2 188
-7 196 -14z m609 12 c47 -4 71 -11 75 -21 3 -8 -2 -47 -11 -86 -18 -79 -44
-212 -52 -267 -11 -72 -11 -72 -211 -70 -98 1 -183 6 -187 10 -8 8 1 97 31
306 17 112 19 120 42 126 33 9 227 11 313 2z m-2745 -15 c18 -18 17 -402 -2
-417 -9 -8 -74 -11 -212 -9 l-199 3 -7 110 c-3 61 -8 155 -10 210 l-3 100 185
5 c102 3 196 7 211 8 14 1 30 -3 37 -10z m697 2 c25 -9 26 -13 20 -52 -4 -23
-13 -116 -19 -207 l-11 -166 -201 -3 c-170 -2 -203 0 -214 13 -9 11 -13 71
-14 212 l-1 198 200 5 c110 3 203 7 207 8 4 1 19 -3 33 -8z m717 -4 c11 -10
12 -31 7 -92 -5 -44 -13 -130 -18 -193 -6 -62 -16 -120 -22 -127 -9 -11 -53
-14 -208 -14 -108 0 -202 4 -210 9 -12 8 -13 43 -7 212 4 112 10 207 12 211 3
5 101 8 219 8 168 0 217 -3 227 -14z m-3464 -8 c7 -7 12 -21 12 -32 0 -12 6
-50 14 -86 32 -143 46 -217 49 -255 l2 -40 -140 0 c-167 0 -143 -24 -209 210
-10 33 -22 74 -28 90 -19 52 -22 107 -7 116 22 14 293 11 307 -3z m671 -1 c6
-8 15 -58 21 -113 6 -54 17 -139 25 -187 7 -49 11 -95 8 -103 -7 -19 -360 -21
-387 -1 -10 8 -20 34 -25 67 -5 30 -13 75 -19 100 -43 185 -50 229 -35 243 3
4 95 7 203 7 152 0 200 -3 209 -13z m695 -74 c4 -49 12 -138 18 -200 9 -89 8
-115 -2 -128 -10 -12 -43 -15 -194 -15 -99 0 -186 4 -193 8 -7 4 -15 39 -19
77 -3 39 -12 95 -19 125 -16 68 -28 204 -19 213 4 4 101 7 214 7 l208 0 6 -87z"/>
</g>
</svg>
