<?xml version="1.0" standalone="no"?>
<!DOCTYPE svg PUBLIC "-//W3C//DTD SVG 20010904//EN"
 "http://www.w3.org/TR/2001/REC-SVG-20010904/DTD/svg10.dtd">
<svg version="1.0" xmlns="http://www.w3.org/2000/svg"
 width="300.000000pt" height="300.000000pt" viewBox="0 0 300.000000 300.000000"
 preserveAspectRatio="xMidYMid meet">
<metadata>
Created by potrace 1.10, written by Peter Selinger 2001-2011
</metadata>
<g transform="translate(0.000000,300.000000) scale(0.100000,-0.100000)"
fill="#000000" stroke="none">
<path d="M1330 2979 c-49 -11 -125 -39 -180 -66 -80 -40 -110 -62 -191 -143
-103 -102 -152 -177 -193 -296 -131 -377 45 -783 415 -962 137 -66 357 -84
514 -43 296 79 513 314 570 620 19 104 19 168 0 267 -47 248 -197 448 -420
559 -163 81 -341 103 -515 64z"/>
<path d="M870 1375 c-241 -42 -487 -202 -621 -405 -51 -77 -89 -155 -89 -183
0 -48 173 -272 291 -378 252 -225 508 -344 849 -394 134 -20 320 -16 465 10
322 57 631 224 855 462 98 105 220 275 220 308 0 48 -96 199 -189 298 -143
151 -370 269 -548 284 l-73 6 -83 -51 c-284 -175 -602 -176 -885 -4 -94 56
-113 61 -192 47z"/>
</g>
</svg>
