<?xml version="1.0" standalone="no"?>
<!DOCTYPE svg PUBLIC "-//W3C//DTD SVG 20010904//EN"
 "http://www.w3.org/TR/2001/REC-SVG-20010904/DTD/svg10.dtd">
<svg version="1.0" xmlns="http://www.w3.org/2000/svg"
 width="220.000000pt" height="220.000000pt" viewBox="0 0 220.000000 220.000000"
 preserveAspectRatio="xMidYMid meet">
<metadata>
Created by potrace 1.10, written by Peter Selinger 2001-2011
</metadata>
<g transform="translate(0.000000,220.000000) scale(0.050000,-0.050000)"
fill="#4a044e" stroke="none">
<path d="M1244 4050 c-669 -146 -878 -893 -439 -1577 l62 -97 46 89 c54 107
152 211 215 226 24 6 60 41 79 77 31 57 124 132 163 132 8 0 9 -44 2 -99 -13
-105 7 -141 49 -89 72 86 228 121 160 35 -51 -65 -51 -83 0 -138 26 -28 48
-89 59 -166 9 -68 31 -137 48 -154 68 -68 -34 -189 -157 -189 -103 0 -112 -16
-91 -152 36 -224 51 -251 204 -379 218 -182 252 -201 287 -166 25 25 2 50
-181 195 -196 155 -240 202 -190 202 11 0 20 15 20 33 0 31 3 31 37 0 51 -47
53 -45 55 71 2 90 11 111 68 162 l66 59 247 -9 c313 -11 336 1 460 238 114
219 90 303 -100 346 -290 65 -440 142 -459 234 -27 137 -185 245 -360 246
l-97 0 7 167 c6 166 -36 214 -76 87 -14 -46 -34 -29 -43 38 -4 27 -16 74 -27
104 l-21 54 -26 -60 c-14 -33 -61 -103 -105 -156 -44 -52 -104 -155 -134 -229
-30 -73 -79 -162 -109 -196 -29 -35 -78 -110 -108 -166 -69 -130 -82 -129
-137 12 -259 657 308 1310 961 1107 116 -36 123 -36 141 -2 49 91 -329 163
-576 110z"/>
<path d="M2870 4066 c-79 -11 -253 -62 -288 -84 -67 -43 20 -80 108 -46 253
98 610 21 817 -175 59 -55 114 -94 123 -86 9 8 11 5 3 -8 -7 -12 12 -75 42
-140 243 -519 -155 -1246 -1080 -1972 -122 -96 -150 -127 -132 -148 32 -40 49
-35 153 48 211 167 282 233 270 252 -7 10 -3 13 9 6 27 -16 349 284 333 310
-6 10 -2 16 8 12 31 -8 189 181 172 208 -8 14 -6 18 7 10 44 -27 245 292 341
539 259 673 -222 1366 -886 1274z"/>
<path d="M1853 3918 c-40 -57 -29 -78 80 -146 163 -104 229 -1 75 116 -110 84
-116 85 -155 30z"/>
<path d="M2394 3888 c-96 -70 -112 -102 -70 -144 39 -39 83 -28 172 40 72 56
121 121 64 86 -11 -7 -15 1 -8 17 27 71 -61 72 -158 1z"/>
<path d="M1951 1381 c-34 -37 -31 -40 77 -102 l112 -63 0 -108 c0 -107 1 -108
60 -108 59 0 60 2 60 106 0 106 0 106 100 165 110 65 111 67 74 117 -25 35
-30 34 -105 -6 -98 -52 -149 -53 -249 -2 -95 49 -86 48 -129 1z"/>
<path d="M1645 1310 c-71 -31 -80 -53 -36 -89 22 -19 37 -15 70 18 57 57 115
51 179 -17 79 -85 64 -181 -45 -287 -169 -163 -190 -251 -101 -415 113 -208
400 -244 490 -62 43 87 50 493 9 509 -30 11 -33 -9 -27 -205 3 -120 -1 -214
-9 -209 -8 5 -15 -7 -15 -28 0 -123 -190 -168 -313 -74 -167 127 -169 247 -7
424 108 117 120 140 120 216 0 99 -17 153 -42 138 -10 -6 -13 1 -8 15 26 67
-158 113 -265 66z"/>
<path d="M1312 1279 c-84 -25 -186 -132 -201 -211 -63 -338 379 -478 538 -170
101 195 -122 447 -337 381z m187 -45 c169 -85 187 -338 31 -434 -178 -110
-390 6 -390 213 0 176 202 301 359 221z"/>
<path d="M1290 1196 c-118 -67 -151 -176 -90 -295 23 -45 49 -78 59 -72 10 6
21 2 25 -10 13 -41 188 -32 237 11 196 175 -5 495 -231 366z m126 -189 c-9
-51 -56 -57 -56 -9 0 25 13 42 31 42 19 0 29 -14 25 -33z"/>
</g>
</svg>
